<svg width="249" height="250" viewBox="0 0 249 250" fill="none" xmlns="http://www.w3.org/2000/svg">
<mask id="mask0_225_8" style="mask-type:luminance" maskUnits="userSpaceOnUse" x="0" y="0" width="249" height="250">
<path d="M249 0H0V250H249V0Z" fill="white"/>
</mask>
<g mask="url(#mask0_225_8)">
<path fill-rule="evenodd" clip-rule="evenodd" d="M120.195 250L190.249 179.899V86.698L192.202 84.738H248.591V177.04L175.678 250H120.195ZM72.886 1.098L175.927 1.112L227.591 52.534H175.833L156.706 71.675V165.837L145.417 177.123H84.076L72.886 165.936V1.098ZM46.196 27.747V177.236L72.843 203.899H133.928L168.106 169.703V76.628L181.361 63.345L238.089 63.347L248.902 73.953L186.69 73.932L179.452 81.177V175.422L104.927 250H72.709L0 177.236V73.997L46.196 27.747ZM484.56 0H560.835V146.472C560.835 160.999 558.531 174.667 553.985 187.597C549.435 200.464 542.296 211.788 532.568 221.452C522.839 231.12 512.652 237.869 501.944 241.816C487.094 247.249 469.308 249.993 448.464 249.993C436.434 249.993 423.311 249.192 409.096 247.475C394.871 245.821 383.014 242.502 373.459 237.525C363.906 232.549 355.153 225.457 347.209 216.307C339.265 207.156 333.855 197.718 330.919 187.994C326.199 172.38 323.838 158.541 323.838 146.472V0H400.112V149.962C400.112 163.401 403.856 173.867 411.279 181.361C418.761 188.91 429.125 192.686 442.421 192.686C455.548 192.686 465.91 188.968 473.393 181.533C480.816 174.155 484.56 163.575 484.56 149.962V0ZM611.72 0H800.649V52.79H688.457V95.686H784.246V145.272H688.457V245.647H611.72V0ZM1002.64 0H1078.92V146.472C1078.92 160.999 1076.61 174.667 1072.07 187.597C1067.52 200.464 1060.38 211.788 1050.65 221.452C1040.92 231.12 1030.74 237.869 1020.03 241.816C1005.18 247.249 987.391 249.993 966.551 249.993C954.519 249.993 941.395 249.192 927.177 247.475C912.958 245.821 901.097 242.502 891.541 237.525C881.991 232.549 873.238 225.457 865.294 216.307C857.349 207.156 851.94 197.718 849.006 187.994C844.286 172.38 841.925 158.541 841.925 146.472V0H918.197V149.962C918.197 163.401 921.94 173.867 929.366 181.361C936.846 188.91 947.212 192.686 960.506 192.686C973.632 192.686 983.993 188.968 991.478 181.533C998.901 174.155 1002.64 163.575 1002.64 149.962V0Z" fill="white"/>
</g>
</svg>
